<?xml version="1.0" encoding="utf-8"?>
<!-- Generator: Adobe Illustrator 24.0.2, SVG Export Plug-In . SVG Version: 6.00 Build 0)  -->
<svg version="1.1" id="Layer_1" xmlns="http://www.w3.org/2000/svg" xmlns:xlink="http://www.w3.org/1999/xlink" x="0px" y="0px"
	 viewBox="0 0 1350 886.8" style="enable-background:new 0 0 1350 886.8;" xml:space="preserve">
<style type="text/css">
	.st0{fill:#0e8ccc;}
	.st1{fill:none;}
	.st2{fill:#f9f9f9;}
</style>
<g>
	<path class="st0" d="M1319.2,601.8L1319.2,601.8c-5.1-87.6-77.9-157.4-166.8-157.4c-88.9,0-161.8,69.8-166.8,157.4h0
		c-17,0-30.8,13.8-30.8,30.8v223.3c0,17,13.8,30.8,30.8,30.8h333.6c17,0,30.8-13.8,30.8-30.8V632.6
		C1350,615.6,1336.2,601.8,1319.2,601.8z M1183.5,738.4c0,2.4-0.9,4.7-2.6,6.3l-13,13c-0.1,0.1-0.2,0.1-0.2,0.2l5.9,51.7h-42.4
		l5.9-51.7c-0.1-0.1-0.2-0.1-0.2-0.2l-13-13c-1.7-1.7-2.6-4-2.6-6.3v-18.4c0-2.4,0.9-4.7,2.6-6.3l13-13c1.7-1.7,4-2.6,6.3-2.6h18.4
		c2.4,0,4.7,0.9,6.3,2.6l13,13c1.7,1.7,2.6,4,2.6,6.3V738.4z M1045.7,601.8c4.9-54.5,50.9-97.4,106.6-97.4s101.7,42.9,106.6,97.4
		H1045.7z"/>
	<path class="st1" d="M1144.9,91H154.3c-32.7,0-59.6,24.8-63,56.6h1116.5C1204.5,115.8,1177.6,91,1144.9,91z"/>
	<path class="st0" d="M440.3,543.3H197.6c-4.3,0-7.7,3.5-7.7,7.7v75.5c0,4.3,3.5,7.7,7.7,7.7h242.6c4.3,0,7.7-3.5,7.7-7.7V551
		C448,546.8,444.5,543.3,440.3,543.3z"/>
	<path class="st1" d="M1144.9,91H154.3c-32.7,0-59.6,24.8-63,56.6h1116.5C1204.5,115.8,1177.6,91,1144.9,91z"/>
	<path class="st2" d="M918.1,770.9H154.3c-34.9,0-63.3-28.4-63.3-63.3V379.4h1117.3v36.3c35.1,10,66.3,29.2,91,54.9V154.3
		C1299.3,69.2,1230,0,1144.9,0H154.3C69.2,0,0,69.2,0,154.3v553.3c0,85.1,69.2,154.3,154.3,154.3h764.1c-0.2-2-0.3-4-0.3-6V770.9z
		 M154.3,91h990.6c32.7,0,59.6,24.8,63,56.6H91.4C94.7,115.8,121.7,91,154.3,91z"/>
	<path class="st0" d="M813.2,543.3H570.6c-4.3,0-7.7,3.5-7.7,7.7v75.5c0,4.3,3.5,7.7,7.7,7.7h242.6c4.3,0,7.7-3.5,7.7-7.7V551
		C820.9,546.8,817.5,543.3,813.2,543.3z"/>
</g>
</svg>
