<svg id="Capa_1" data-name="Capa 1" xmlns="http://www.w3.org/2000/svg" xmlns:xlink="http://www.w3.org/1999/xlink" viewBox="0 0 100 50.03"><defs><style>.cls-1{fill:#678f05;}.cls-2{fill:none;}.cls-3{fill:#0e8ccc;fill-rule:evenodd;}</style><symbol id="SUBE_logotipo-secundario" data-name="SUBE logotipo-secundario" viewBox="0 0 206.36 103.23"><path class="cls-1" d="M80,83.32l-0.15.09-0.2-.11,0.35,0M61.75,30.92c1-1.05,14.22-14.33,17.52-17.21a4.56,4.56,0,0,1,6.25-.14l17.83,17.35v1H94.27V60.7c0,8.8-3.27,15.56-11.72,15.56S70.83,69.5,70.83,60.7V31.92H61.75v-1Z"/><rect class="cls-2" width="206.36" height="103.23"/><path class="cls-3" d="M48.47,40.38A26.69,26.69,0,0,0,38,38.16c-3.55,0-8.13,1.55-8.13,7.17,0,8.94,22.61,5.18,22.61,22.47,0,11.31-8.94,15.6-19.36,15.6-5.62,0-8.13-.73-13.23-2l1-9.32a24.88,24.88,0,0,0,11.68,3.18c3.92,0,9.17-2,9.17-6.65,0-9.83-22.62-5.76-22.62-22.84C19.06,34.24,28,30,37.09,30a38.94,38.94,0,0,1,12.34,1.85l-1,8.5"/><path class="cls-3" d="M61.49,30.92H71.84V60.7c0,8.8,2.81,14.56,10.71,14.56S93.27,69.5,93.27,60.7V30.92h10.35v33c0,13.83-7.84,19.51-21.07,19.51S61.49,77.7,61.49,63.88v-33"/><path class="cls-3" d="M112,30.92h18c6.65,0,16.63,1.92,16.63,13.23,0,6.13-4.14,10.42-10.27,11.53v0.15c7,0.66,11.83,5.39,11.83,11.75,0,13-11.68,14.93-18.18,14.93H112V30.92M122.3,51.76h4.21c4.36,0,9.76-1,9.76-6.28,0-6-5.24-6.43-10-6.43h-4V51.76Zm0,22.62h4.88c4.8,0,10.64-1.18,10.64-7.17,0-6.73-5.47-7.76-10.64-7.76H122.3V74.37Z"/><polyline class="cls-3" points="156.6 30.92 187.04 30.92 187.04 39.05 166.95 39.05 166.95 51.76 185.34 51.76 185.34 59.89 166.95 59.89 166.95 74.38 187.19 74.38 187.19 82.51 156.6 82.51 156.6 30.92"/></symbol></defs><title>logo_sube</title><use id="SUBE_logotipo-secundario-3" data-name="SUBE logotipo-secundario" width="206.36" height="103.23" transform="translate(0 0) scale(0.48)" xlink:href="#SUBE_logotipo-secundario"/></svg>